# xmcd
#
# Track frame offsets: 
#        150
#        9722
#        21995
#        36680
#        49560
#        65637
#        75542
#        97765
#        113725
#        127665
#        144897
#        153207
#        166680
#        179222
#        188630
#        205290
#        219802
#        230997
#
# Disc length: 3413 seconds
#
# Revision: 11
# Processed by: cddbd v1.5.2PL0 Copyright (c) Steve Scherf et al.
# Submitted via: ExactAudioCopyFreeDBPlugin 1.0
#
DISCID=ec0d5312
DTITLE=The Byrds - 1969 - Ballad Of Easy Rider
DYEAR=1969
DGENRE=
TTITLE0=Ballad Of Easy Rider
TTITLE1=Fido
TTITLE2=Oil In My Lamp
TTITLE3=Tulsa County Blue
TTITLE4=Jack Tarr The Sailor
TTITLE5=Jesus Is Just Alright
TTITLE6=It's All Over Now, Baby Blue
TTITLE7=There Must Be Someone (I Can Turn To)
TTITLE8=Gunga Din
TTITLE9=Deportee (Plane Wreck At Los Gatos)
TTITLE10=Armstrong, Aldrin And Collins
TTITLE11=Way Beyond The Sun
TTITLE12=Mae Jean Goes To Hollywood
TTITLE13=Oil In My Lamp [Alternate Version]
TTITLE14=Tulsa County Blue [Alternate Version]
TTITLE15=Fiddler A Dram (Moog Experiment)
TTITLE16=Ballad Of Easy Rider [Long Version]
TTITLE17=Build It Up [Instrumental]
EXTD=
EXTT0=
EXTT1=
EXTT2=
EXTT3=
EXTT4=
EXTT5=
EXTT6=
EXTT7=
EXTT8=
EXTT9=
EXTT10=
EXTT11=
EXTT12=
EXTT13=
EXTT14=
EXTT15=
EXTT16=
EXTT17=
PLAYORDER=
